<?xml version="1.0" standalone="no"?>
<!DOCTYPE svg PUBLIC "-//W3C//DTD SVG 20010904//EN"
 "http://www.w3.org/TR/2001/REC-SVG-20010904/DTD/svg10.dtd">
<svg version="1.0" xmlns="http://www.w3.org/2000/svg"
 width="500.000000pt" height="500.000000pt" viewBox="0 0 500.000000 500.000000"
 preserveAspectRatio="xMidYMid meet">
<metadata>
Created by potrace 1.14, written by Peter Selinger 2001-2017
</metadata>
<g transform="translate(0.000000,500.000000) scale(0.100000,-0.100000)"
fill="#000000" stroke="none">
<path d="M2319 4490 c-147 -17 -341 -76 -484 -148 -145 -72 -260 -156 -385
-282 -175 -175 -290 -359 -364 -581 -62 -186 -68 -235 -75 -566 -3 -166 -8
-303 -11 -305 -3 -2 -21 -11 -40 -20 -64 -29 -115 -74 -149 -133 -39 -64 -64
-162 -55 -215 16 -99 158 -642 180 -686 29 -62 107 -138 172 -167 36 -16 67
-21 129 -22 46 0 83 -3 83 -7 0 -17 76 -91 114 -111 58 -31 171 -30 244 3 101
44 173 165 158 262 -12 73 -296 1183 -313 1221 -21 47 -100 120 -145 133 l-33
10 1 169 c1 152 4 181 28 270 107 393 414 708 801 820 136 39 215 48 375 42
262 -10 456 -82 677 -254 275 -213 441 -574 431 -940 l-3 -106 -42 -14 c-49
-17 -112 -74 -135 -123 -9 -19 -85 -305 -168 -635 -164 -648 -164 -648 -121
-733 28 -55 101 -117 158 -133 72 -21 170 -17 219 8 38 20 114 94 114 111 0 4
37 7 83 7 70 1 90 5 140 30 67 33 140 107 167 168 10 23 53 178 94 344 85 337
91 393 55 488 -25 68 -101 153 -166 186 -26 13 -50 25 -53 27 -3 2 -8 137 -12
300 -5 238 -10 316 -26 392 -110 528 -485 952 -989 1119 -65 22 -154 47 -198
56 -94 19 -348 27 -456 15z m481 -124 c134 -31 250 -73 353 -130 320 -175 551
-447 662 -779 54 -164 66 -235 72 -439 l6 -187 -49 19 c-27 10 -56 21 -65 24
-14 4 -17 29 -22 158 -12 335 -104 576 -315 821 -163 191 -381 322 -652 395
-85 22 -115 25 -280 26 -148 1 -201 -3 -265 -18 -254 -59 -460 -170 -631 -341
-105 -105 -178 -205 -240 -328 -94 -186 -134 -357 -134 -574 0 -119 -2 -134
-17 -139 -10 -3 -40 -14 -67 -24 l-49 -19 6 197 c5 210 23 311 81 465 182 485
621 831 1136 897 116 15 353 3 470 -24z m-1418 -1611 c15 -11 33 -32 42 -47 9
-14 84 -293 167 -619 168 -663 165 -645 100 -711 -81 -80 -209 -75 -272 13
-26 35 -309 1162 -309 1229 0 81 28 117 120 154 31 12 126 0 152 -19z m2442
-6 c48 -32 66 -68 66 -129 0 -33 -52 -255 -147 -633 -131 -518 -151 -585 -176
-614 -87 -99 -282 -43 -303 87 -7 45 286 1212 314 1250 10 14 34 36 53 48 29
21 43 23 97 19 43 -3 73 -12 96 -28z m-2673 -759 c71 -278 129 -511 129 -519
0 -20 -96 -8 -147 18 -44 22 -99 79 -115 120 -6 14 -44 157 -85 316 -82 317
-89 372 -56 445 23 51 106 133 130 128 12 -2 46 -120 144 -508z m2885 484 c47
-32 59 -47 84 -99 34 -69 26 -131 -51 -438 -91 -364 -102 -388 -196 -444 -49
-28 -153 -44 -153 -23 0 12 244 987 255 1018 6 18 18 15 61 -14z"/>
<path d="M2352 2600 c-79 -21 -181 -82 -246 -146 -142 -142 -195 -370 -131
-561 78 -230 288 -382 530 -383 209 0 400 120 494 312 212 430 -179 900 -647
778z m-4 -529 c2 -267 -2 -312 -29 -295 -5 3 -9 133 -9 290 0 267 1 285 18
282 16 -3 17 -25 20 -277z m-88 -5 c0 -103 -4 -157 -11 -162 -22 -13 -29 23
-29 153 0 139 4 163 26 163 11 0 14 -29 14 -154z m165 -6 c0 -131 -2 -155 -15
-155 -13 0 -15 25 -18 158 -2 147 -1 158 15 155 16 -3 18 -18 18 -158z m159
144 c3 -9 6 -75 6 -149 0 -104 -3 -135 -15 -145 -8 -6 -19 -9 -25 -5 -11 7
-15 297 -3 308 11 12 31 7 37 -9z m163 -134 c3 -141 -3 -180 -26 -166 -7 5
-11 59 -11 162 0 143 1 155 18 152 15 -3 17 -19 19 -148z m-242 -6 c0 -67 -3
-79 -17 -82 -16 -3 -18 6 -18 76 0 43 3 82 7 86 19 19 28 -7 28 -80z m160 1
c0 -68 -3 -80 -17 -83 -16 -3 -18 6 -18 83 0 77 2 86 18 83 14 -3 17 -15 17
-83z m163 -4 c3 -75 1 -82 -15 -79 -15 3 -19 15 -21 72 -3 76 2 100 21 94 8
-3 13 -32 15 -87z m-640 0 c3 -46 1 -52 -15 -49 -13 2 -19 14 -21 42 -4 46 4
69 21 64 7 -3 13 -26 15 -57z m710 0 c3 -46 1 -52 -15 -49 -13 2 -19 14 -21
42 -4 46 4 69 21 64 7 -3 13 -26 15 -57z"/>
<path d="M1634 1032 c-97 -34 -201 -128 -243 -223 -38 -83 -23 -159 44 -218
47 -41 86 -58 155 -67 42 -6 52 -4 48 7 -2 7 -24 17 -47 21 -90 15 -171 86
-171 148 0 49 58 146 123 206 34 32 48 47 30 35 -47 -32 -93 -80 -125 -130
-33 -53 -37 -47 -7 11 46 90 200 204 265 196 20 -2 33 -13 48 -43 20 -37 21
-55 20 -255 0 -164 -6 -248 -22 -355 -11 -77 -18 -143 -14 -147 4 -4 18 -9 31
-10 18 -2 26 3 31 22 119 384 174 516 252 605 33 37 37 45 16 31 -14 -9 -44
-43 -64 -74 -53 -79 -62 -87 -28 -24 35 65 91 132 109 132 8 0 17 -16 21 -37
7 -39 -1 -263 -12 -325 -5 -31 -3 -39 12 -45 11 -3 22 -11 26 -17 10 -14 35
10 75 74 52 81 123 170 135 170 7 0 8 -44 3 -142 -7 -161 -4 -174 55 -184 20
-3 30 -2 24 3 -8 5 3 24 35 58 43 48 48 50 71 38 22 -11 28 -9 57 19 35 33 46
21 16 -16 -17 -20 -16 -19 7 1 23 20 27 20 59 7 39 -17 44 -17 36 -4 -3 5 7
15 22 23 25 14 28 13 45 -8 22 -28 22 -44 3 -69 -8 -11 -15 -26 -15 -33 0 -17
32 -17 50 0 12 10 12 9 1 -6 -8 -9 -10 -21 -6 -25 4 -4 12 2 19 12 6 11 27 38
46 60 19 23 28 35 20 29 -8 -7 -21 -13 -29 -13 -10 0 -8 7 10 26 19 20 25 23
34 11 5 -7 20 -19 33 -26 19 -10 27 -9 51 8 l28 20 11 -67 c9 -51 17 -72 37
-89 52 -46 75 -21 75 81 l0 66 36 15 c22 9 41 12 48 6 20 -16 57 -23 54 -11
-2 7 3 15 10 17 26 10 12 -53 -24 -102 -54 -75 -104 -184 -104 -227 0 -32 5
-40 30 -53 29 -15 31 -14 54 7 13 13 31 37 39 53 9 17 16 26 16 20 1 -5 -11
-30 -25 -55 l-26 -45 26 24 c31 29 51 88 69 204 11 66 20 94 38 113 17 19 19
23 6 18 -28 -10 -20 13 13 38 17 12 30 28 30 35 0 17 -12 16 -36 -2 -28 -21
-32 -19 -40 21 -11 58 -38 56 -74 -6 -7 -12 -11 -13 -22 -2 -7 7 -13 20 -13
30 0 30 -30 18 -39 -15 -13 -42 -34 -49 -66 -23 -14 11 -33 23 -43 27 -16 5
-18 13 -12 52 6 42 40 201 52 245 4 13 1 16 -7 11 -10 -6 -11 -1 -6 19 5 21 3
26 -13 26 -31 0 -62 -116 -80 -293 -7 -71 -13 -93 -32 -113 -12 -13 -25 -24
-28 -24 -4 0 -14 18 -24 40 -16 39 -47 55 -47 26 0 -8 -16 -27 -36 -42 l-36
-28 -19 25 c-26 33 -33 59 -20 72 17 17 25 0 10 -20 -13 -16 -12 -17 3 -4 10
7 27 11 38 8 23 -6 23 -6 10 27 -7 20 -16 26 -40 26 -36 0 -85 -43 -76 -66 8
-20 -39 -38 -63 -24 -10 5 -21 16 -25 25 -9 23 -42 18 -60 -10 -21 -33 -46
-33 -46 0 0 29 -27 35 -37 7 -9 -23 -86 -122 -95 -122 -5 0 -7 57 -6 128 2 97
-1 134 -12 156 -36 70 -82 57 -165 -50 -32 -40 -59 -74 -60 -74 0 0 -1 53 -1
118 0 97 -3 124 -19 157 -49 99 -143 33 -238 -167 -30 -62 -58 -123 -63 -136
-6 -14 -9 33 -9 135 0 180 -16 256 -65 304 -33 34 -63 36 -136 11z m670 -335
c-23 -23 -58 -67 -79 -97 -71 -102 -72 -92 -2 15 43 65 108 138 116 130 2 -3
-13 -24 -35 -48z m773 -39 c-3 -8 -6 -5 -6 6 -1 11 2 17 5 13 3 -3 4 -12 1
-19z m203 -298 c-6 -11 -8 -26 -4 -32 4 -6 3 -8 -2 -5 -6 3 -10 -9 -11 -26 0
-35 -20 -93 -29 -84 -3 2 2 22 10 42 18 43 20 59 6 50 -15 -9 -13 0 12 52 12
25 24 41 26 35 2 -6 -2 -20 -8 -32z"/>
<path d="M2913 663 c-22 -8 -15 -40 10 -45 20 -4 23 -1 19 19 -5 26 -12 32
-29 26z"/>
<path d="M2454 418 l-19 -23 23 19 c21 18 27 26 19 26 -2 0 -12 -10 -23 -22z"/>
</g>
</svg>
